<mxfile host="app.diagrams.net" agent="Mozilla/5.0 (Windows NT 10.0; Win64; x64) AppleWebKit/537.36 (KHTML, like Gecko) Chrome/128.0.0.0 Safari/537.36 Edg/128.0.0.0" version="24.7.8">
  <diagram name="第 1 页" id="Dqm6s_bBct5XR2kBFNnD">
    <mxGraphModel dx="1666" dy="833" grid="1" gridSize="10" guides="1" tooltips="1" connect="1" arrows="1" fold="1" page="1" pageScale="1" pageWidth="827" pageHeight="1169" math="0" shadow="0">
      <root>
        <mxCell id="0" />
        <mxCell id="1" parent="0" />
        <mxCell id="6w0r7TjKL5XLj9r4oj1u-1" value="" style="whiteSpace=wrap;html=1;aspect=fixed;" vertex="1" parent="1">
          <mxGeometry x="260" y="150" width="80" height="80" as="geometry" />
        </mxCell>
        <mxCell id="6w0r7TjKL5XLj9r4oj1u-2" value="" style="rounded=1;whiteSpace=wrap;html=1;" vertex="1" parent="1">
          <mxGeometry x="354" y="50" width="120" height="60" as="geometry" />
        </mxCell>
        <mxCell id="6w0r7TjKL5XLj9r4oj1u-3" value="Classname" style="swimlane;fontStyle=1;align=center;verticalAlign=top;childLayout=stackLayout;horizontal=1;startSize=26;horizontalStack=0;resizeParent=1;resizeParentMax=0;resizeLast=0;collapsible=1;marginBottom=0;whiteSpace=wrap;html=1;" vertex="1" parent="1">
          <mxGeometry x="280" y="270" width="160" height="86" as="geometry" />
        </mxCell>
        <mxCell id="6w0r7TjKL5XLj9r4oj1u-4" value="+ field: type" style="text;strokeColor=none;fillColor=none;align=left;verticalAlign=top;spacingLeft=4;spacingRight=4;overflow=hidden;rotatable=0;points=[[0,0.5],[1,0.5]];portConstraint=eastwest;whiteSpace=wrap;html=1;" vertex="1" parent="6w0r7TjKL5XLj9r4oj1u-3">
          <mxGeometry y="26" width="160" height="26" as="geometry" />
        </mxCell>
        <mxCell id="6w0r7TjKL5XLj9r4oj1u-5" value="" style="line;strokeWidth=1;fillColor=none;align=left;verticalAlign=middle;spacingTop=-1;spacingLeft=3;spacingRight=3;rotatable=0;labelPosition=right;points=[];portConstraint=eastwest;strokeColor=inherit;" vertex="1" parent="6w0r7TjKL5XLj9r4oj1u-3">
          <mxGeometry y="52" width="160" height="8" as="geometry" />
        </mxCell>
        <mxCell id="6w0r7TjKL5XLj9r4oj1u-6" value="+ method(type): type" style="text;strokeColor=none;fillColor=none;align=left;verticalAlign=top;spacingLeft=4;spacingRight=4;overflow=hidden;rotatable=0;points=[[0,0.5],[1,0.5]];portConstraint=eastwest;whiteSpace=wrap;html=1;" vertex="1" parent="6w0r7TjKL5XLj9r4oj1u-3">
          <mxGeometry y="60" width="160" height="26" as="geometry" />
        </mxCell>
        <mxCell id="6w0r7TjKL5XLj9r4oj1u-7" value="" style="shape=stencil(lVhJchsxDHyNrigQ3M+O8w9XWY5UUSyXLGf5fTBROBqCo1b5pgVNEEBj48Y/vO+e3rYb4ffz6fh9+2v/fN5t/JeNyP51tz3tz/pp4x83/uHleNp+Ox0/Xp8v39+eJsnp04/jz+mE3xecJxcnkPCfyw9Myf/74etF/LB/XYgHYteJC7mAxGsv7inl2+KRSujEIwk4PVFJnXiiCE53QrF08pkqOH6yTaw835b3yV4/N2+tWxuJkzH3/wVX5bOQ9PfXaAB7SyLnjfc53pavkVIy8h75k5mYTQCggky5V+CYSgUWFGuxKxQTcJGjnHt+FioCYuDI196nTAFcyXM7bw6aUAJRc4GCYamnCLwULKszzjH9tzc5FwpAPlLoc7JoXgD5KW16FxU9AvhUb2Q1ZIogEby0qjADKjHQEByFHlCZBKRmKJap1ZGAIGhQ2WhQq0BhjIFcT9XqqQIiafZLX3k1/zLSkEl65mk+MSqP6pM+/6tmD9CggDgA0JUUkJ0FVJAME6AvkbXCOCggiQUgLinAZwu4Y4NpaQpAZT7W1mWWABTpSm7UgAClVZQlAHWSQn7QkBG9SyvUS7di8tUhDoJa+dxbFwBGbi2Dl8o9GwJbACpkCsjVAgKOtAQL8EhDpTRo8KBfKflGowNOoBAtIGENprYqAPXc1RR1dzQMbEWlcrJhSCA0Fk5eGq5UEDWU/QNbK2LrTObrZML36FpGFZh9YQAUnNSfBOi0PZRvh4YfGSpZutsVDV11WkFlg+0CoF0xAvaFPCS1XhKNAtwCu+jsEU3pw1Svs4MHbhXXNqJ5Oiltjl0fmHSm7G3QSRzOPzany7yVrcoPY7dOfB6YLFT783VMRgmqE1/uAUlggkpt09c8FLtWRdajVm0p9rj/ZC0BvQZdruDqkOwQ6jKMmk5fsTfazXVqHVDajHrdflAUVIEhXoCVe7LAG3m0meiakIZ1EhWkaOtLbs1onaXZPhUU+FQwLiZa5QGrNW1srcDlzlJIR0/gTm8HyQx7/7D0xLaWrV/eZkyA0xG3q16fUdAOyUN3ghsh22zk1hhuiXsjnoHfuY1AV3FU3IadQvHwMiaq3PaqG3531lT0JOJspWX4QuMaARfikDOG8Az3M2l9amEqyifKxYgL5Dvb01HN/+Q74F1x/XB9cnzZHw6XF8vl//aJUn+6PG/6x78=);lineShape=1;strokeColor=default;" vertex="1" parent="1">
          <mxGeometry x="80.10966829368249" y="287.3379787587801" width="110.78069948486086" height="188.51356691281444" as="geometry" />
        </mxCell>
      </root>
    </mxGraphModel>
  </diagram>
</mxfile>
